<svg xmlns="http://www.w3.org/2000/svg" viewBox="0 0 2120 1749.33"><defs><style>.cls-1{fill:#f2be2a;}</style></defs><g id="Capa_2" data-name="Capa 2"><g id="objects"><path class="cls-1" d="M1191.33,1671.83c-76.72-46.69-161.34-60.28-248.65-69.95a847.46,847.46,0,0,1-103.45-21A765.46,765.46,0,0,1,726.16,1541l32.38-67.49a149.25,149.25,0,0,0-70-199.13h0l-39.23,81.76a149.24,149.24,0,0,0,15.12,154.11A760.7,760.7,0,0,1,525,1410.84l57.78-65a149.26,149.26,0,0,0-12.39-210.72h0l-60.25,67.78a149.32,149.32,0,0,0-12.79,181.76q-8.54-8.51-16.79-17.27a782.55,782.55,0,0,1-110.24-148.54l63.91-40.51a149.25,149.25,0,0,0,46.17-206h0l-76.6,48.55A149.14,149.14,0,0,0,334.42,1149,875.15,875.15,0,0,1,281.9,998.37l69.6-20.45A149.25,149.25,0,0,0,452.66,792.66h0l-87,25.55a149.12,149.12,0,0,0-100.26,98.16,909.61,909.61,0,0,1-10.34-158.75l80-.52a149.24,149.24,0,0,0,148.3-150.2h0l-90.68.58a149.25,149.25,0,0,0-133.86,85.13,846.55,846.55,0,0,1,35.13-174.23l77.89,21.8a149.26,149.26,0,0,0,184-103.51h0l-87.32-24.44A149.25,149.25,0,0,0,315.09,458.6,884.59,884.59,0,0,1,398,298.73l69.6,42.88a149.26,149.26,0,0,0,205.36-48.8h0L595.7,245.25a149.27,149.27,0,0,0-162.94,4.12A869.33,869.33,0,0,1,506,164.63c15.51,12.81,36.7,19.16,60.47,13.44a126.5,126.5,0,0,0,55-28.58c82.44-73,82.44-146.22,82.44-146.22C602.83-10.41,539.62,20.88,500.72,59.2c-30.53,30.08-25.54,73.06-1.63,98.87a859.32,859.32,0,0,0-90.5,104,149.31,149.31,0,0,0-64.2-171.64L267.18,42.87h0A149.25,149.25,0,0,0,316,248.23l71.35,44A884.66,884.66,0,0,0,297,464.61,149.31,149.31,0,0,0,188.54,333.89l-87.33-24.43h0a149.25,149.25,0,0,0,103.51,184l74.56,20.87a916,916,0,0,0-39.37,183.47,149.28,149.28,0,0,0-137.22-88.28L12,610.05h0a149.26,149.26,0,0,0,150.21,148.3l73.08-.47a914.43,914.43,0,0,0,12.27,194.58A149.29,149.29,0,0,0,87,900L0,925.59H0a149.26,149.26,0,0,0,185.27,101.15l73-21.44a878.89,878.89,0,0,0,62,177.2,149.28,149.28,0,0,0-161.21-.86l-76.59,48.54h0a149.25,149.25,0,0,0,206,46.17l60.68-38.46a855.65,855.65,0,0,0,108,149.78,149.25,149.25,0,0,0-151.14,44.78l-60.24,67.78h0a149.25,149.25,0,0,0,210.71-12.4l47.13-53a790.23,790.23,0,0,0,158.43,113.92A149.3,149.3,0,0,0,516.45,1633l-39.23,81.76h0a149.25,149.25,0,0,0,199.13-70l34.33-71.53a827.75,827.75,0,0,0,208,64.88c17.08,2.83,37.53,6,54.17,8,97.38,12.36,176.68,39.83,252.16,103.15l27.89-34.86A567.77,567.77,0,0,0,1191.33,1671.83Z"/><path class="cls-1" d="M2033,900a149.31,149.31,0,0,0-160.56,52.41,913,913,0,0,0,12.27-194.57l73.08.47A149.26,149.26,0,0,0,2108,610.05h0l-90.68-.58a149.29,149.29,0,0,0-137.21,88.27,916.64,916.64,0,0,0-39.38-183.46l74.56-20.87a149.25,149.25,0,0,0,103.51-184h0l-87.33,24.43A149.31,149.31,0,0,0,1823,464.6a884.37,884.37,0,0,0-90.31-172.41l71.36-44a149.25,149.25,0,0,0,48.8-205.36h0l-77.21,47.56a149.32,149.32,0,0,0-64.19,171.66,859.59,859.59,0,0,0-90.51-104c23.91-25.81,28.9-68.79-1.63-98.87-38.9-38.32-102.11-69.61-203.21-55.93,0,0,0,73.19,82.44,146.22a126.5,126.5,0,0,0,55,28.58c23.72,5.7,44.86-.6,60.36-13.35a881.11,881.11,0,0,1,73.37,84.66,149.25,149.25,0,0,0-163-4.13l-77.21,47.56h0a149.26,149.26,0,0,0,205.36,48.8l69.7-42.94q4.18,6.36,8.26,12.79a811.48,811.48,0,0,1,75.51,148.3,149.29,149.29,0,0,0-154.39-47.53l-87.32,24.44h0a149.26,149.26,0,0,0,184,103.51l78-21.83a885.69,885.69,0,0,1,34.31,172.8,149.25,149.25,0,0,0-133.15-83.67l-90.68-.58h0A149.24,149.24,0,0,0,1785,757.1l79.57.51a914.44,914.44,0,0,1-10,158.5,149.07,149.07,0,0,0-100.17-97.9l-87-25.55h0A149.25,149.25,0,0,0,1768.5,977.92l69.64,20.46a867.52,867.52,0,0,1-52.56,151.08,149.17,149.17,0,0,0-69.35-128.55l-76.6-48.55h0a149.25,149.25,0,0,0,46.17,206l64,40.6a783.87,783.87,0,0,1-110.38,148.45q-8.33,8.91-17,17.53a149.32,149.32,0,0,0-12.62-182l-60.25-67.78h0a149.26,149.26,0,0,0-12.39,210.72l57.85,65.08a754.4,754.4,0,0,1-139.43,99.18,149.23,149.23,0,0,0,15-154l-39.23-81.76h0a149.25,149.25,0,0,0-70,199.13l32.32,67.36a790.76,790.76,0,0,1-199,58.43c-17.15,2.56-35.34,5.09-52.85,7-105.74,12-191,40.52-274.83,108.2L895,1749.33a523.2,523.2,0,0,1,56.17-40.18c59.35-37.13,126.1-53.55,196-63,91.32-10.42,180-34.94,262.2-72.94l34.34,71.56a149.25,149.25,0,0,0,199.13,70h0L1603.55,1633A149.3,149.3,0,0,0,1458,1548.72a784.83,784.83,0,0,0,158.36-113.91l47.13,53a149.25,149.25,0,0,0,210.71,12.4h0l-60.24-67.78a149.25,149.25,0,0,0-151.14-44.78,856,856,0,0,0,108-149.78l60.68,38.46a149.25,149.25,0,0,0,206-46.17h0l-76.59-48.54a149.26,149.26,0,0,0-161.21.87,879.84,879.84,0,0,0,62-177.21l73,21.44A149.26,149.26,0,0,0,2120,925.59h0Z"/></g></g></svg>