<svg xmlns="http://www.w3.org/2000/svg" width="2000.000000pt" height="847.000000pt" viewBox="0 0 2000.000000 847.000000"
 preserveAspectRatio="xMidYMid meet"><defs><style>.cls-1{fill:#333;}</style></defs><g id="Capa_2" data-name="Capa 2"><g id="Capa_1-2" data-name="Capa 1"><path class="cls-1" d="M55.8,1.34C20.8,7.24,0,27.14,0,54.84c.1,25.6,16.4,46.7,43,55.6,10.7,3.6,26.2,1.9,38.3-4.3,6.3-3.1,13.6-9.9,15.4-14.1,1.3-3,1.2-3.7-.6-7-6.6-12.2-6.6-12.2-6.6-23.2.1-11.9,1.2-15.4,7-21.9,8.1-9,23.9-12.5,46.8-10.3,14.1,1.3,46.2,7.4,85.2,16.1,37.3,8.2,48.8,10.4,81,15,31.4,4.5,57,7.5,78.5,9.1,21.8,1.6,24.9,2,26.3,3.5,2,2,2.7,80.3,2.7,313.5,0,153.9.3,199.9,1.2,200.8,1.8,1.8,102.7,1.7,105.2-.1,1.7-1.2,1.8-14.3,2.2-278.7.3-152.6.2-278.7-.2-280.2-.4-2-1.2-2.8-2.8-2.8-1.2,0-12.5,2.9-25.1,6.5-45.8,12.9-66.6,16-109,16-52.4,0-87.8-5.2-190.5-28C145.9,8.74,115.5,2.84,97.8.94,85.1-.46,65.5-.26,55.8,1.34Z"/><path class="cls-1" d="M1534,19.44c-79.6,2.5-141.9,9.8-207,24-26.1,5.7-46.4,11-49.8,12.9l-2.7,1.5,3-.6c1.7-.3,4.6-1,6.5-1.5,5.2-1.2,45.2-7.5,63-9.8,44.9-5.9,76.4-7.5,135.5-6.8,88.6,1,162,10.1,240.5,29.7,84.1,21,152.6,48.2,189,75,16.7,12.3,34.1,32.5,39.7,45.9,4.5,11,2.7,23.9-4.7,33.9-4.1,5.6-1.8,5.9,12.8,2.1,15.5-4.1,26.8-12.3,32.2-23.3,10.6-21.4,7.4-42.4-9.9-65.3q-35.55-47.25-144.7-80.3c-63.8-19.4-134.5-31.2-214.4-36C1604.8,19.84,1550.5,18.94,1534,19.44Z"/><path class="cls-1" d="M634.7,34.94c-23.6,5.8-42.4,23.3-49.1,45.9-5.6,18.8-.8,45.4,11.3,62.7,13.5,19.2,32.4,28.5,57.6,28.5,37.8,0,64.3-22.1,69.5-58.1,4.6-31.2-12.3-62.2-40.7-74.7C668.9,32.84,649.9,31.14,634.7,34.94Z"/><path class="cls-1" d="M176.5,105.54c-55,5-102.6,42.7-133.5,105.8-19.6,39.9-29.1,80-32,134.7-3.8,74.1,14.3,143.8,51,196.1,9.3,13.2,30.9,34.5,44.1,43.4,32.7,22.1,70.4,33.3,102.1,30.3,26.8-2.6,54.6-13.9,76.5-31.1,38.9-30.8,69.4-86.7,82.3-150.9,13.8-68.8,9.1-142.5-12.7-200.5-12.5-33.1-28.9-59.1-51.8-82.1-22.5-22.6-42.3-34.2-70.7-41.5C215.7,105.64,193.6,103.94,176.5,105.54Zm25.6,36.9c7.8,2.3,13,5.7,19.6,12.7,17.4,18.7,27.7,56.8,33.7,125.7,2.6,29,3.6,53.8,3.6,89,0,68.4-3.8,110.1-13.6,150-9.7,39.4-24.1,56.6-48.4,57.8-10.1.5-18.1-1.8-26.8-7.5-24-16-39.6-68.2-44.3-148.5-1.4-23.8-.7-115,1.1-134.3,1.8-20.9,5.8-50.8,8.5-64.3,6.7-32.8,20.1-61.5,33.8-72.3C180.9,141.54,190.7,139,202.1,142.44Z"/><path class="cls-1" d="M1800.1,191.94c.5,2.4,3.2,9.1,5.9,14.9s5,11.4,5,12.4c0,4.1-5.2,7.1-22.5,13-27.1,9.1-43.6,18.1-60.7,33.3-59.2,52.4-79.1,157.1-45.1,237.4,9.8,23.1,24,43.7,42.7,62.4a182.28,182.28,0,0,0,60.9,40.3c37.3,14.9,66.3,12.6,106.5-8.3,14-7.3,24.6-15,37.5-27.5,31.1-29.9,52.1-72,59.3-119,2.1-14,2.4-44.7.5-59.5-6.2-48.8-23.5-88.2-51.3-117.1-16.9-17.5-31.9-27.7-58.5-39.8-17.5-8.1-25-10.5-33.6-11.3-9.6-.8-10.8-2-11.7-11.9-.7-8.8-1.7-11.1-5.8-14.6-3.5-2.9-16.9-7.5-24.5-8.4l-5.5-.7Zm42.4,62.3c10.2,4.7,20.7,20.2,25.5,37.6,3.4,12.5,7.8,36.5,10.1,55.5,1.8,15.1,2.2,25,2.6,61.7.6,55.2-.9,75.3-8.3,112.8-6.6,33.4-11.1,46.1-20.1,56-5.9,6.6-10.9,9-18.8,9-7.6,0-13.1-2.5-18.9-8.4-15.5-16-23.6-40.4-29-87.6-5.7-49.6-3.5-123.8,4.9-166.5,3.3-16.8,8.8-35.2,13-43.8,6.7-13.7,16.5-24.4,25-27.5C1833.3,251.34,1837.1,251.64,1842.5,254.24Z"/><path class="cls-1" d="M658.5,229.34c-15.4,4.1-41,11.2-56.9,15.7-23.3,6.6-28.4,8.4-26.5,9.1,8.7,3.1,13.5,6.5,16.6,11.6a50.12,50.12,0,0,1,4.4,10c1,3.5,1.4,39.5,1.8,157.8.4,84.2,1,153.5,1.4,154s23.5.9,51.3,1.1c49.6.2,50.4.2,52.4-1.8l2-2-.2-175.3c-.3-192.4.1-178.8-6.1-184.6C693.9,220.54,689.4,221,658.5,229.34Z"/><path class="cls-1" d="M977.5,222.94c-15.8,2-33.2,8.6-47.8,18.2-10.7,7.1-16.3,12.1-23.7,21.5-11.2,14.2-12.1,15.2-13.8,15.2-4.3-.1-4.6-1.2-5.8-20.8-.7-10.6-1.7-20-2.4-21.3-4-7.7-11.1-10.3-27.5-10.3-13.6,0-16.7.7-47.9,10.5-26.9,8.5-43.9,13.1-55.1,14.9-3.8.6-8.6,1.3-10.5,1.6-3.2.5-2.5.9,8.1,4.4,16.7,5.5,20.9,8.4,25.1,17.5l2.3,5,.5,152.2c.5,144.4.6,152.3,2.3,154s5.5,1.9,49.5,2.5c48.1.7,53.6.5,55-1.6.4-.6.9-63.9,1.2-140.6l.5-139.5,2.7-5.7c5.3-11.4,14.5-18.4,28.3-21.3,9.2-1.9,21.5-1.9,26.2,0,7.1,3,14,9.1,16.8,14.9,4.5,9.1,4.8,22,4.1,163.3l-.7,127.2,2.1,2.1c2,2,2.6,2.1,52.5,1.8,46.9-.3,50.6-.4,52.2-2.1s1.8-9.2,2.5-140.5c.7-124,.9-139.2,2.4-142.9,2.1-5.8,11.9-15.5,19.6-19.5,6.1-3.2,6.6-3.3,18.8-3.3,10.7,0,13.2.3,17.2,2.2a36.93,36.93,0,0,1,16.5,16.2l2.8,5.6.5,141.2c.4,98.8.8,141.5,1.6,142.3s17,1,53.3.8c50.4-.3,52.3-.4,53.7-2.2,1.2-1.7,1.4-22.4,1.4-140.5,0-76.2-.4-143.8-.9-150.1-1.2-14.4-3.1-22.1-8.3-33-3.3-6.8-5.7-10.1-12.7-17.1-7.5-7.5-10.1-9.4-19.2-13.7-23.3-11.4-44.2-13-71.9-5.6-25.3,6.8-39.1,15.1-59.2,35.5-7.6,7.6-14.5,13.9-15.3,13.9-3.5,0-5.5-2.2-7.1-7.8-6.1-21.3-21.3-35.6-44.5-41.6C1006.4,222.24,992.4,221.14,977.5,222.94Z"/><path class="cls-1" d="M1504.4,222.94c-14.6,1.7-33.1,9.3-44.6,18.4a67.45,67.45,0,0,0-16,18.9c-2.4,4.1-3.1,4.6-6.2,4.6-2.3,0-3.8-.6-4.4-1.8-.5-.9-1.2-7.8-1.4-15.2-.3-8.2-1-14.6-1.9-16.3-2.1-4.5-6.2-6-17.5-6.5-11.8-.5-20.2,1.3-54.9,11.8-11,3.4-29.2,8.8-40.5,12.1s-21.2,6.3-22,6.6,2,1.7,6.5,3.3a126.58,126.58,0,0,1,12.1,4.8c5.5,2.8,10.9,9.3,12.3,14.6,2.8,11.2,3.1,32.8,3.1,230.2,0,187.7.1,203.3,1.7,204.5,1.3,1.1,11,1.5,51.7,1.7,27.6.1,51.1,0,52.4-.3l2.2-.5v-64.5c0-63.2,0-64.5,2-66.5,3.3-3.3,6.3-2.5,13.3,3.9,8.1,7.4,12.8,10.1,24.1,14,27.5,9.7,53.4,7.7,80.6-5.9q61.65-30.9,83-116c11.8-46.9,11.8-93.9-.1-141.8-7-28.5-14.2-46.5-25.3-63.1q-28.95-43.35-83.2-50.6C1519.5,221.74,1515.1,221.64,1504.4,222.94Zm-16,41.9c7.4,1.2,17.2,5.7,22.3,10.4,7.5,6.7,13.8,25.2,16.8,48.5,6.5,51.9,5.5,144.4-2.1,190.1-1.9,11.3-7.2,28-11.7,36.3-9.1,17.2-23.1,25.1-40.2,22.6-13.7-1.9-23.6-9.5-30.1-23.2-6.6-13.9-6.4-10.7-6.4-136.6,0-126.3-.3-120.7,6.7-130.8,5.8-8.6,17.2-15.1,30.1-17.3C1480.5,263.74,1481.8,263.74,1488.4,264.84Z"/><path class="cls-1" d="M613.5,622.94c-64.4,2.2-110.4,12.1-152.3,32.6-43.1,21.2-68,47.9-77.9,83.8-2.4,8.7-2.7,11.8-2.7,24s.4,15.1,2.8,23c8.1,26.7,27.6,46.5,54.6,55.5,7.9,2.6,23.6,3.8,26.8,2.1,2.2-1.2,2.3-1.5,1.6-12.5-1.1-17.7,2.2-27.4,14.1-42.2,12.4-15.5,30.7-29.1,56-41.4,43.1-21.1,86.8-32.8,143-38.4,88.7-8.9,206-4.2,312.5,12.5,26.6,4.2,87.5,14.8,160,27.9,93.9,17,140.3,24.3,193,30.4,68.9,8,132,8.1,182.7.1,5.1-.8,9.6-1.5,10-1.6s-.1-.4-1.2-.8-16.4-.6-34-.3c-61.4.9-114.3-4.7-189.3-19.9-54.3-11-88.8-19.7-253.2-63.9-122.8-33-158.1-41.3-220.5-52C752.5,626.84,677.9,620.64,613.5,622.94Z"/></g></g></svg>